<mxfile host="65bd71144e">
    <diagram id="ttEYwXHXhW2THq_xpsFp" name="Page-1">
        <mxGraphModel dx="1636" dy="563" grid="1" gridSize="10" guides="1" tooltips="1" connect="1" arrows="1" fold="1" page="1" pageScale="1" pageWidth="850" pageHeight="1100" math="0" shadow="0">
            <root>
                <mxCell id="0"/>
                <mxCell id="1" parent="0"/>
                <mxCell id="3" value="&lt;font style=&quot;font-size: 22px;&quot;&gt;Student&lt;/font&gt;" style="swimlane;whiteSpace=wrap;html=1;startSize=30;" vertex="1" parent="1">
                    <mxGeometry x="20" y="70" width="200" height="230" as="geometry"/>
                </mxCell>
                <mxCell id="5" value="-name : str&lt;div&gt;-id : int&lt;/div&gt;" style="text;html=1;align=center;verticalAlign=middle;resizable=0;points=[];autosize=1;strokeColor=none;fillColor=none;fontSize=22;" vertex="1" parent="3">
                    <mxGeometry y="30" width="130" height="70" as="geometry"/>
                </mxCell>
                <mxCell id="7" value="+__str__()&lt;div&gt;+addStudent()&lt;/div&gt;&lt;div&gt;+addCourse()&lt;/div&gt;" style="text;html=1;align=center;verticalAlign=middle;resizable=0;points=[];autosize=1;strokeColor=none;fillColor=none;fontSize=22;" vertex="1" parent="3">
                    <mxGeometry y="120" width="160" height="90" as="geometry"/>
                </mxCell>
                <mxCell id="6" value="" style="endArrow=none;html=1;exitX=0;exitY=0.5;exitDx=0;exitDy=0;entryX=1;entryY=0.5;entryDx=0;entryDy=0;" edge="1" parent="1" source="3" target="3">
                    <mxGeometry width="50" height="50" relative="1" as="geometry">
                        <mxPoint x="380" y="320" as="sourcePoint"/>
                        <mxPoint x="430" y="270" as="targetPoint"/>
                    </mxGeometry>
                </mxCell>
                <mxCell id="8" value="&lt;b&gt;C&lt;/b&gt;" style="ellipse;whiteSpace=wrap;html=1;" vertex="1" parent="1">
                    <mxGeometry x="-10" y="40" width="30" height="30" as="geometry"/>
                </mxCell>
                <mxCell id="9" value="&lt;font style=&quot;font-size: 22px;&quot;&gt;Course&lt;/font&gt;" style="swimlane;whiteSpace=wrap;html=1;startSize=30;" vertex="1" parent="1">
                    <mxGeometry x="330" y="70" width="200" height="230" as="geometry"/>
                </mxCell>
                <mxCell id="10" value="-courseName : str&lt;div&gt;-course_id : int&lt;/div&gt;&lt;div&gt;-enrolles : [ ]&lt;/div&gt;" style="text;html=1;align=center;verticalAlign=middle;resizable=0;points=[];autosize=1;strokeColor=none;fillColor=none;fontSize=22;" vertex="1" parent="9">
                    <mxGeometry x="-10" y="30" width="200" height="90" as="geometry"/>
                </mxCell>
                <mxCell id="11" value="+enroll_std ()&lt;div&gt;+remove_std()&lt;/div&gt;" style="text;html=1;align=center;verticalAlign=middle;resizable=0;points=[];autosize=1;strokeColor=none;fillColor=none;fontSize=22;" vertex="1" parent="9">
                    <mxGeometry x="10" y="130" width="170" height="70" as="geometry"/>
                </mxCell>
                <mxCell id="12" value="" style="endArrow=none;html=1;exitX=0;exitY=0.5;exitDx=0;exitDy=0;entryX=1;entryY=0.5;entryDx=0;entryDy=0;" edge="1" parent="1" source="9" target="9">
                    <mxGeometry width="50" height="50" relative="1" as="geometry">
                        <mxPoint x="690" y="320" as="sourcePoint"/>
                        <mxPoint x="740" y="270" as="targetPoint"/>
                        <Array as="points">
                            <mxPoint x="460" y="185"/>
                        </Array>
                    </mxGeometry>
                </mxCell>
                <mxCell id="13" value="&lt;b&gt;C&lt;/b&gt;" style="ellipse;whiteSpace=wrap;html=1;" vertex="1" parent="1">
                    <mxGeometry x="300" y="40" width="30" height="30" as="geometry"/>
                </mxCell>
                <mxCell id="14" value="&lt;font style=&quot;font-size: 22px;&quot;&gt;system_manage&lt;/font&gt;" style="swimlane;whiteSpace=wrap;html=1;startSize=30;" vertex="1" parent="1">
                    <mxGeometry x="620" y="60" width="230" height="250" as="geometry"/>
                </mxCell>
                <mxCell id="15" value="-student : [ ]&lt;div&gt;-courses : { }&lt;/div&gt;" style="text;html=1;align=center;verticalAlign=middle;resizable=0;points=[];autosize=1;strokeColor=none;fillColor=none;fontSize=22;fontStyle=0" vertex="1" parent="14">
                    <mxGeometry x="15" y="40" width="150" height="70" as="geometry"/>
                </mxCell>
                <mxCell id="16" value="+ add_std()&lt;div&gt;+add_course&lt;/div&gt;&lt;div&gt;+enroll_std()&lt;/div&gt;" style="text;html=1;align=center;verticalAlign=middle;resizable=0;points=[];autosize=1;strokeColor=none;fillColor=none;fontSize=22;" vertex="1" parent="14">
                    <mxGeometry x="20" y="130" width="150" height="90" as="geometry"/>
                </mxCell>
                <mxCell id="17" value="" style="endArrow=none;html=1;exitX=0;exitY=0.5;exitDx=0;exitDy=0;entryX=1;entryY=0.5;entryDx=0;entryDy=0;" edge="1" parent="1" source="14" target="14">
                    <mxGeometry width="50" height="50" relative="1" as="geometry">
                        <mxPoint x="980" y="320" as="sourcePoint"/>
                        <mxPoint x="1030" y="270" as="targetPoint"/>
                        <Array as="points">
                            <mxPoint x="750" y="185"/>
                        </Array>
                    </mxGeometry>
                </mxCell>
                <mxCell id="18" value="&lt;b&gt;C&lt;/b&gt;" style="ellipse;whiteSpace=wrap;html=1;" vertex="1" parent="1">
                    <mxGeometry x="590" y="40" width="30" height="30" as="geometry"/>
                </mxCell>
            </root>
        </mxGraphModel>
    </diagram>
</mxfile>